:SAMPLES-PER-SECOND 30
:FULLY-SPECIFIED
:DEGREES
277
root  -36.8273 36.9247 8.10181 176.971 48.5694 171.66
RightUpLeg  -29.4392 -9.3521 -19.3411
RightLeg  41.2031 -6.76907 -6.58569
RightFoot  -3.69121 -1.55943 22.6503
RightToes  -1.74624e-010 0 -3.6325e-017
Spine  8.71926 -2.83289 -17.3861
Spine1  20.0076 -5.95423 2.81322
HEad  -15.9892 29.1251 -11.2512
LeftShoulder1  1.2057 -1.81342 -15.902
LeftArm  12.3239 -4.03618 -61.2132
LeftForeArm  69.0015 -79.2268 -81.0938
LeftHand  -2.66683 -4.19625 31.8162
RightShoulder  0.555141 -0.628074 12.3379
RightArm  6.7245 -19.6832 61.7073
RightForeArm  151.526 63.9103 157.985
RightHand  -1.6505 6.09609 -16.8757
LeftUpLeg  1.09716 -1.49393 10.609
LeftLeg  22.5435 2.9316 1.78459
LeftFoot  -23.6808 -2.40677 -23.3498
LeftToes  3.7286e-011 -1.5702e-010 -9.70233e-012
278
root  -35.3256 36.9996 8.27554 178.859 47.338 172.438
RightUpLeg  -28.445 -10.2805 -17.0399
RightLeg  41.7674 -6.83537 -6.77609
RightFoot  -8.33928 -0.653635 22.3886
RightToes  -1.74624e-010 0 -3.6325e-017
Spine  7.62552 -3.31154 -16.3893
Spine1  19.8923 -6.73738 4.46226
HEad  -16.3845 29.5189 -12.2931
LeftShoulder1  1.20912 -1.78271 -16.1137
LeftArm  10.7506 -1.19116 -59.5956
LeftForeArm  72.5593 -79.3235 -84.1603
LeftHand  -2.56129 -4.00791 31.2052
RightShoulder  0.575991 -0.531038 12.4137
RightArm  6.93473 -18.9465 60.4621
RightForeArm  151.239 63.4788 158.347
RightHand  -1.57975 5.99556 -16.3126
LeftUpLeg  2.16568 -2.72149 12.5506
LeftLeg  19.4818 4.17861 2.48106
LeftFoot  -19.4677 -1.75381 -26.0502
LeftToes  3.7286e-011 -1.5702e-010 -9.70233e-012
279
root  -33.8025 37.1044 8.49908 -179.794 46.9596 173.152
RightUpLeg  -27.4196 -10.7199 -14.4994
RightLeg  42.0561 -6.94097 -6.94461
RightFoot  -12.0262 0.046261 21.3302
RightToes  -1.74624e-010 0 -3.6325e-017
Spine  6.18733 -3.24234 -15.2491
Spine1  20.983 -6.73716 5.42378
HEad  -17.1569 29.8882 -13.1208
LeftShoulder1  1.28551 -2.05104 -16.4105
LeftArm  9.20508 1.75583 -57.9853
LeftForeArm  72.95 -79.3528 -83.6327
LeftHand  -2.60148 -4.02037 31.6225
RightShoulder  0.59021 -0.510092 12.7921
RightArm  6.7577 -16.0336 58.9435
RightForeArm  149.793 63.9107 157.802
RightHand  -1.54399 5.84031 -16.1667
LeftUpLeg  2.38755 -3.67198 14.3496
LeftLeg  19.4823 8.56093 4.11669
LeftFoot  -13.8555 -0.518022 -25.6506
LeftToes  3.7286e-011 -1.5702e-010 -9.70233e-012
280
root  -32.3714 37.3078 8.71524 -179.202 47.3199 173.695
RightUpLeg  -25.887 -10.8212 -12.1576
RightLeg  41.7077 -6.83976 -6.77149
RightFoot  -13.9113 0.354479 19.8247
RightToes  -1.74624e-010 0 -3.6325e-017
Spine  5.31954 -2.81895 -13.2595
Spine1  22.1204 -5.80872 4.65943
HEad  -17.7514 29.9289 -13.8707
LeftShoulder1  1.38119 -2.42436 -16.5846
LeftArm  8.1983 4.90569 -56.7818
LeftForeArm  70.5243 -79.2999 -80.8314
LeftHand  -2.6914 -3.91869 32.9895
RightShoulder  0.595269 -0.484612 12.7935
RightArm  6.15078 -12.3848 58.0872
RightForeArm  148.294 64.8564 156.746
RightHand  -1.57166 5.71844 -16.6179
LeftUpLeg  1.27802 -3.60065 15.1841
LeftLeg  23.569 14.615 7.20732
LeftFoot  -8.25935 0.515427 -18.0912
LeftToes  3.7286e-011 -1.5702e-010 -9.70233e-012
281
root  -31.0865 37.6757 8.83923 -178.685 47.7914 174.586
RightUpLeg  -23.3184 -10.7512 -9.85634
RightLeg  39.7061 -7.1445 -6.58454
RightFoot  -14.3764 0.389111 18.2104
RightToes  -1.74624e-010 0 -3.6325e-017
Spine  5.204 -2.26642 -10.0131
Spine1  22.6515 -4.26476 2.74519
HEad  -17.8975 29.3126 -14.5318
LeftShoulder1  1.43117 -2.61467 -16.6853
LeftArm  8.32056 8.26905 -56.2112
LeftForeArm  68.9736 -79.2444 -79.79
LeftHand  -2.75313 -3.65934 34.6034
RightShoulder  0.584525 -0.454394 12.1789
RightArm  5.22642 -9.90063 57.7016
RightForeArm  147.543 65.2603 156.258
RightHand  -1.63348 5.68515 -17.3006
LeftUpLeg  -0.930295 -1.85272 14.9075
LeftLeg  29.2808 17.776 10.7928
LeftFoot  -5.06081 0.511397 -8.18435
LeftToes  3.7286e-011 -1.5702e-010 -9.70233e-012
282
root  -29.8759 38.2316 8.85824 -178.015 47.9529 175.474
RightUpLeg  -20.0386 -10.6922 -7.86089
RightLeg  35.9845 -7.98335 -6.43577
RightFoot  -13.4866 0.231435 17.1152
RightToes  -1.74624e-010 0 -3.6325e-017
Spine  4.98386 -1.53998 -6.99077
Spine1  23.0246 -2.60561 1.17498
HEad  -17.603 28.1416 -14.6705
LeftShoulder1  1.42117 -2.50896 -16.9526
LeftArm  9.76745 11.5261 -55.9004
LeftForeArm  71.6083 -79.3069 -82.9772
LeftHand  -2.76973 -3.51926 35.3093
RightShoulder  0.560392 -0.495012 11.5724
RightArm  4.15116 -9.21956 57.0382
RightForeArm  147.585 64.7778 156.745
RightHand  -1.65673 5.67612 -17.5527
LeftUpLeg  -3.59443 -0.267595 13.4202
LeftLeg  32.5428 15.9313 11.0026
LeftFoot  -5.99069 0.263807 -5.08028
LeftToes  3.7286e-011 -1.5702e-010 -9.70233e-012
283
root  -28.6479 38.9516 8.8087 -177.67 47.6651 175.455
RightUpLeg  -16.8885 -11.156 -6.78572
RightLeg  31.8026 -8.3403 -5.78919
RightFoot  -10.5782 -0.188844 17.0599
RightToes  -1.74624e-010 0 -3.6325e-017
Spine  4.07555 -0.646884 -5.80549
Spine1  23.655 -1.16422 0.494589
HEad  -16.8557 26.8031 -13.8216
LeftShoulder1  1.37098 -2.23147 -17.24
LeftArm  12.0766 14.5365 -55.492
LeftForeArm  78.242 -79.4062 -89.1807
LeftHand  -2.71976 -3.62372 34.3335
RightShoulder  0.534235 -0.626297 11.5141
RightArm  3.14849 -9.92716 56.2039
RightForeArm  148.158 64.0589 157.5
RightHand  -1.60394 5.61925 -17.0937
LeftUpLeg  -6.43315 0.72013 10.429
LeftLeg  31.5312 10.0164 6.96585
LeftFoot  -8.11171 0.307925 -9.11531
LeftToes  3.7286e-011 -1.5702e-010 -9.70233e-012
284
root  -27.4121 39.7237 8.68911 -177.448 46.8202 175.157
RightUpLeg  -14.4347 -12.8367 -6.26187
RightLeg  28.726 -7.51969 -4.67675
RightFoot  -5.45956 -0.956743 17.7565
RightToes  -1.74624e-010 0 -3.6325e-017
Spine  2.95621 0.0812104 -5.57388
Spine1  24.19 -0.122992 0.34076
HEad  -15.5988 25.5812 -12.0396
LeftShoulder1  1.28873 -1.92912 -17.0359
LeftArm  14.4166 17.5872 -55.2405
LeftForeArm  86.3162 -79.4026 -96.1043
LeftHand  -2.58752 -3.79818 32.1769
RightShoulder  0.510772 -0.785104 11.7678
RightArm  2.51353 -11.5459 55.9686
RightForeArm  149.129 63.6658 157.963
RightHand  -1.52054 5.55039 -16.332
LeftUpLeg  -8.95989 0.639472 6.56392
LeftLeg  27.1784 4.75014 2.98915
LeftFoot  -7.72365 0.485214 -13.7387
LeftToes  3.7286e-011 -1.5702e-010 -9.70233e-012
285
root  -26.1585 40.3879 8.51777 -177.146 45.608 175.349
RightUpLeg  -12.8481 -15.3921 -5.79493
RightLeg  27.7731 -5.92884 -3.61211
RightFoot  0.98697 -2.02901 18.691
RightToes  -1.74624e-010 0 -3.6325e-017
Spine  2.22221 0.514976 -5.48567
Spine1  24.0631 0.468566 0.304717
HEad  -14.0123 24.6249 -10.0021
LeftShoulder1  1.18489 -1.62969 -16.3412
LeftArm  16.2776 20.848 -55.271
LeftForeArm  94.5298 -79.1928 -103.648
LeftHand  -2.43986 -3.86432 30.2392
RightShoulder  0.487647 -0.924156 11.9049
RightArm  2.55541 -13.6606 56.3852
RightForeArm  150.385 63.4292 158.302
RightHand  -1.46682 5.51277 -15.8254
LeftUpLeg  -10.6713 -0.3003 2.92712
LeftLeg  21.1658 2.29906 1.30648
LeftFoot  -5.31677 0.856408 -15.6157
LeftToes  3.7286e-011 -1.5702e-010 -9.70233e-012
286
root  -24.8807 40.8198 8.33918 -176.986 44.5721 175.764
RightUpLeg  -12.2444 -16.9601 -5.60911
RightLeg  29.1305 -3.52891 -2.35652
RightFoot  7.60827 -3.41968 20.5406
RightToes  -1.74624e-010 0 -3.6325e-017
Spine  1.88573 0.867125 -6.0008
Spine1  23.3263 0.745783 0.458635
HEad  -12.5264 24.0335 -8.46803
LeftShoulder1  1.10288 -1.38735 -15.7612
LeftArm  17.6352 23.9316 -55.0485
LeftForeArm  102.982 -78.6753 -112.136
LeftHand  -2.35888 -3.8806 29.2369
RightShoulder  0.464793 -1.03789 11.8503
RightArm  3.26072 -15.7178 56.8207
RightForeArm  151.929 63.0375 158.8
RightHand  -1.43199 5.46467 -15.526
LeftUpLeg  -11.8551 -1.34222 -0.153272
LeftLeg  14.9904 1.57074 0.733211
LeftFoot  -2.58074 1.4023 -17.865
LeftToes  3.7286e-011 -1.5702e-010 -9.70233e-012
287
root  -23.6173 40.841 8.17937 -177.129 43.9493 176.059
RightUpLeg  -12.9333 -16.1985 -5.96918
RightLeg  33.406 0.540914 0.19755
RightFoot  12.4759 -5.05031 24.0588
RightToes  -1.74624e-010 0 -3.6325e-017
Spine  1.86619 1.22708 -7.1167
Spine1  22.352 0.925671 0.689022
HEad  -11.3988 23.7106 -7.59398
LeftShoulder1  1.07348 -1.35267 -15.2776
LeftArm  18.379 26.3778 -54.6289
LeftForeArm  110.477 -78.03 -119.203
LeftHand  -2.34466 -4.01992 28.6599
RightShoulder  0.446543 -1.10639 11.6048
RightArm  4.08133 -17.351 57.1261
RightForeArm  153.63 62.5048 159.417
RightHand  -1.36337 5.36872 -14.9293
LeftUpLeg  -13.604 -2.42322 -2.85663
LeftLeg  10.9002 1.45755 0.147131
LeftFoot  0.343055 2.09343 -20.3938
LeftToes  3.7286e-011 -1.5702e-010 -9.70233e-012
